<svg width="152" height="24" viewBox="0 0 152 24" fill="none" xmlns="http://www.w3.org/2000/svg">
<path d="M5.49414 14.0195C5.49414 14.3776 5.62842 14.7113 5.89697 15.0205C6.17367 15.3298 6.56022 15.6024 7.05664 15.8384C7.5612 16.0662 8.16341 16.2493 8.86328 16.3877C9.57129 16.5179 10.3607 16.583 11.2314 16.583C12.1185 16.583 12.916 16.5138 13.624 16.3755C14.332 16.229 14.9302 16.0378 15.4185 15.8018C15.9149 15.5658 16.2933 15.2931 16.5537 14.9839C16.8141 14.6746 16.9443 14.3532 16.9443 14.0195V0.689453C17.6442 0.722005 18.3034 0.770833 18.9219 0.835938C19.5404 0.892904 20.0897 0.953939 20.5698 1.01904C21.1232 1.09229 21.64 1.1696 22.1201 1.25098V4.37598C21.9248 4.31087 21.644 4.23356 21.2778 4.14404C20.9116 4.04639 20.5088 3.96094 20.0693 3.8877V14.9229C20.0693 15.5658 19.8333 16.1517 19.3613 16.6807C18.8975 17.2096 18.2627 17.6654 17.457 18.0479C16.6595 18.4222 15.7236 18.7152 14.6494 18.9268C13.5752 19.1383 12.4359 19.2441 11.2314 19.2441C10.0189 19.2441 8.87549 19.1383 7.80127 18.9268C6.72705 18.7152 5.78711 18.4222 4.98145 18.0479C4.17578 17.6654 3.53695 17.2096 3.06494 16.6807C2.60107 16.1517 2.36914 15.5658 2.36914 14.9229V3.8877C1.92969 3.97721 1.52279 4.06673 1.14844 4.15625C0.782227 4.23763 0.505534 4.31087 0.318359 4.37598V1.25098C0.782227 1.1696 1.29492 1.09229 1.85645 1.01904C2.32845 0.953939 2.87777 0.892904 3.50439 0.835938C4.13102 0.770833 4.79427 0.722005 5.49414 0.689453V14.0195ZM28.3945 13.3359C28.3945 13.7917 28.4556 14.1864 28.5776 14.52C28.6997 14.8455 28.8665 15.1263 29.0781 15.3623C29.2897 15.5902 29.5298 15.7773 29.7983 15.9238C30.075 16.0703 30.3639 16.1842 30.665 16.2656C30.9661 16.3389 31.2713 16.3918 31.5806 16.4243C31.8898 16.4487 32.1868 16.4609 32.4717 16.4609C33.5052 16.4609 34.4451 16.3267 35.2915 16.0581C36.1379 15.7896 36.8906 15.46 37.5498 15.0693V5.08398L40.6992 5.32812V19.6104C40.6992 20.1882 40.5771 20.7253 40.333 21.2217C40.0889 21.7181 39.7349 22.1453 39.271 22.5034C38.8071 22.8696 38.2375 23.1545 37.562 23.3579C36.8866 23.5614 36.1175 23.6631 35.2549 23.6631V21.5391C35.5804 21.5391 35.8815 21.5065 36.1582 21.4414C36.4349 21.3763 36.675 21.2746 36.8784 21.1362C37.09 21.006 37.2528 20.8392 37.3667 20.6357C37.4888 20.4404 37.5498 20.2126 37.5498 19.9521V17.3887C37.1673 17.6247 36.7767 17.8403 36.3779 18.0356C35.9873 18.231 35.5763 18.4019 35.145 18.5483C34.7137 18.6867 34.262 18.7965 33.79 18.8779C33.318 18.9593 32.8216 19 32.3008 19C31.0394 19 29.9611 18.8983 29.0659 18.6948C28.1707 18.4832 27.4342 18.174 26.8564 17.7671C26.2868 17.3521 25.8677 16.8394 25.5991 16.229C25.3306 15.6187 25.1963 14.9066 25.1963 14.0928V5.32812L28.3945 5.08398V13.3359ZM47.3887 14.8984C47.6816 14.8984 47.9705 14.9229 48.2554 14.9717C48.5483 15.0205 48.8088 15.0938 49.0366 15.1914C49.2645 15.2891 49.4476 15.4152 49.5859 15.5698C49.7324 15.7244 49.8057 15.9076 49.8057 16.1191V17.9014C49.8057 18.0967 49.7324 18.2635 49.5859 18.4019C49.4476 18.5402 49.2645 18.6541 49.0366 18.7437C48.8088 18.8332 48.5483 18.8983 48.2554 18.939C47.9705 18.9797 47.6816 19 47.3887 19C47.0957 19 46.8068 18.9797 46.522 18.939C46.2371 18.8983 45.9808 18.8332 45.7529 18.7437C45.5251 18.6541 45.342 18.5402 45.2036 18.4019C45.0653 18.2635 44.9961 18.0967 44.9961 17.9014V16.1191C44.9961 15.9076 45.0653 15.7244 45.2036 15.5698C45.342 15.4152 45.5251 15.2891 45.7529 15.1914C45.9808 15.0938 46.2371 15.0205 46.522 14.9717C46.8068 14.9229 47.0957 14.8984 47.3887 14.8984ZM60.7188 0.420898C62.0452 0.420898 63.4613 0.469727 64.9668 0.567383C66.4805 0.656901 68.0674 0.835938 69.7275 1.10449V14.7275C69.7275 15.2728 69.6055 15.7611 69.3613 16.1924C69.1253 16.6156 68.7957 16.9858 68.3726 17.3032C67.9575 17.6125 67.4611 17.877 66.8833 18.0967C66.3136 18.3083 65.6951 18.4792 65.0278 18.6094C64.3687 18.7396 63.6729 18.8332 62.9404 18.8901C62.208 18.9471 61.4756 18.9756 60.7432 18.9756C59.9945 18.9756 59.258 18.9471 58.5337 18.8901C57.8094 18.8332 57.1217 18.7396 56.4707 18.6094C55.8197 18.4792 55.2134 18.3083 54.6519 18.0967C54.0985 17.877 53.6102 17.6125 53.187 17.3032C52.7638 16.9858 52.422 16.6156 52.1616 16.1924C51.9012 15.7692 51.7425 15.2809 51.6855 14.7275L54.8594 13.8486C54.8594 14.3532 55.0303 14.7642 55.3721 15.0815C55.7139 15.3989 56.1615 15.6471 56.7148 15.8262C57.2764 16.0052 57.9071 16.1273 58.6069 16.1924C59.3068 16.2575 60.0189 16.29 60.7432 16.29C61.4837 16.29 62.1999 16.2575 62.8916 16.1924C63.5915 16.1191 64.21 15.993 64.7471 15.814C65.2923 15.6268 65.7277 15.3745 66.0532 15.0571C66.3869 14.7397 66.5537 14.3369 66.5537 13.8486V3.61914C65.7399 3.50521 64.8651 3.41162 63.9292 3.33838C63.0015 3.26514 62.0534 3.22852 61.085 3.22852H60.6699C59.2946 3.24479 57.9111 3.31396 56.5195 3.43604C55.1361 3.54997 53.7201 3.76562 52.2715 4.08301V1.00684C53.8177 0.770833 55.2948 0.616211 56.7026 0.542969C58.1187 0.461589 59.4574 0.420898 60.7188 0.420898ZM81.5684 4.86426C82.252 4.86426 82.9315 4.89681 83.6069 4.96191C84.2905 5.02702 84.9456 5.13281 85.5723 5.2793C86.1989 5.42578 86.7848 5.60889 87.3301 5.82861C87.8753 6.04834 88.3473 6.31283 88.7461 6.62207C89.153 6.93132 89.4704 7.28939 89.6982 7.69629C89.9261 8.09505 90.04 8.54264 90.04 9.03906V15.3623C90.04 15.8018 89.9261 16.2046 89.6982 16.5708C89.4704 16.937 89.153 17.2666 88.7461 17.5596C88.3473 17.8444 87.8753 18.0926 87.3301 18.3042C86.7848 18.5158 86.1989 18.6908 85.5723 18.8291C84.9456 18.9674 84.2905 19.0692 83.6069 19.1343C82.9233 19.2075 82.2438 19.2441 81.5684 19.2441C80.8929 19.2441 80.2134 19.2075 79.5298 19.1343C78.8543 19.0692 78.2033 18.9674 77.5767 18.8291C76.95 18.6908 76.3641 18.5158 75.8188 18.3042C75.2817 18.0926 74.8097 17.8444 74.4028 17.5596C74.0041 17.2666 73.6908 16.9411 73.4629 16.583C73.235 16.2168 73.1211 15.8099 73.1211 15.3623V9.03906C73.1211 8.54264 73.235 8.09505 73.4629 7.69629C73.6908 7.28939 74.0041 6.93132 74.4028 6.62207C74.8097 6.31283 75.2817 6.04834 75.8188 5.82861C76.3641 5.60889 76.95 5.42578 77.5767 5.2793C78.2033 5.13281 78.8543 5.02702 79.5298 4.96191C80.2134 4.89681 80.8929 4.86426 81.5684 4.86426ZM76.2217 14.5811C76.2217 14.9554 76.3763 15.2809 76.6855 15.5576C77.0029 15.8262 77.4139 16.054 77.9185 16.2412C78.423 16.4202 78.9927 16.5545 79.6274 16.644C80.2703 16.7336 80.9173 16.7783 81.5684 16.7783C82.252 16.7783 82.9111 16.7295 83.5459 16.6318C84.1888 16.5342 84.7585 16.3958 85.2549 16.2168C85.7513 16.0296 86.146 15.8018 86.439 15.5332C86.7401 15.2565 86.8906 14.9391 86.8906 14.5811V9.50293C86.8906 9.15299 86.7401 8.83968 86.439 8.56299C86.146 8.27816 85.7513 8.04215 85.2549 7.85498C84.7585 7.65967 84.1888 7.51318 83.5459 7.41553C82.9111 7.30973 82.252 7.25684 81.5684 7.25684C80.9173 7.25684 80.2703 7.30566 79.6274 7.40332C78.9927 7.49284 78.423 7.63118 77.9185 7.81836C77.4139 8.00553 77.0029 8.24154 76.6855 8.52637C76.3763 8.80306 76.2217 9.12858 76.2217 9.50293V14.5811ZM95.8506 13.3359C95.8506 13.7917 95.9116 14.1864 96.0337 14.52C96.1558 14.8455 96.3226 15.1263 96.5342 15.3623C96.7458 15.5902 96.9858 15.7773 97.2544 15.9238C97.5311 16.0703 97.82 16.1842 98.1211 16.2656C98.4222 16.3389 98.7274 16.3918 99.0366 16.4243C99.3459 16.4487 99.6429 16.4609 99.9277 16.4609C100.961 16.4609 101.901 16.3267 102.748 16.0581C103.594 15.7896 104.347 15.46 105.006 15.0693V5.08398L108.155 5.32812V19.6104C108.155 20.1882 108.033 20.7253 107.789 21.2217C107.545 21.7181 107.191 22.1453 106.727 22.5034C106.263 22.8696 105.694 23.1545 105.018 23.3579C104.343 23.5614 103.574 23.6631 102.711 23.6631V21.5391C103.036 21.5391 103.338 21.5065 103.614 21.4414C103.891 21.3763 104.131 21.2746 104.334 21.1362C104.546 21.006 104.709 20.8392 104.823 20.6357C104.945 20.4404 105.006 20.2126 105.006 19.9521V17.3887C104.623 17.6247 104.233 17.8403 103.834 18.0356C103.443 18.231 103.032 18.4019 102.601 18.5483C102.17 18.6867 101.718 18.7965 101.246 18.8779C100.774 18.9593 100.278 19 99.7568 19C98.4954 19 97.4172 18.8983 96.522 18.6948C95.6268 18.4832 94.8903 18.174 94.3125 17.7671C93.7428 17.3521 93.3237 16.8394 93.0552 16.229C92.7866 15.6187 92.6523 14.9066 92.6523 14.0928V5.32812L95.8506 5.08398V13.3359ZM115.455 19H112.672V0.665039H115.455V19ZM133.692 14.0195C133.489 13.8405 133.237 13.6655 132.936 13.4946C132.634 13.3237 132.264 13.1732 131.825 13.043C131.385 12.9046 130.86 12.7948 130.25 12.7134C129.648 12.6239 128.94 12.5791 128.126 12.5791C127.402 12.5791 126.714 12.5954 126.063 12.6279C125.42 12.6523 124.854 12.7337 124.366 12.8721C123.878 13.0023 123.491 13.2139 123.207 13.5068C122.922 13.7998 122.779 14.2067 122.779 14.7275V16.29C123.495 16.404 124.285 16.4976 125.147 16.5708C126.01 16.644 126.97 16.6807 128.028 16.6807C128.875 16.6807 129.774 16.6522 130.726 16.5952C131.686 16.5301 132.675 16.404 133.692 16.2168V14.0195ZM128.199 5.08398C128.606 5.08398 129.098 5.10433 129.676 5.14502C130.254 5.18571 130.856 5.25895 131.483 5.36475C132.11 5.4624 132.728 5.60075 133.338 5.77979C133.957 5.95068 134.51 6.17855 134.999 6.46338C135.495 6.74007 135.894 7.07373 136.195 7.46436C136.496 7.85498 136.646 8.31478 136.646 8.84375V18.292C135.963 18.4303 135.19 18.5483 134.327 18.646C133.587 18.7355 132.704 18.8169 131.678 18.8901C130.653 18.9634 129.509 19 128.248 19C126.995 19 125.66 18.9471 124.244 18.8413C122.836 18.7355 121.363 18.5524 119.825 18.292V13.8975C119.825 13.4255 119.935 13.0145 120.155 12.6646C120.383 12.3065 120.692 12.0013 121.083 11.749C121.473 11.4967 121.933 11.2892 122.462 11.1265C122.991 10.9637 123.561 10.8335 124.171 10.7358C124.781 10.6382 125.416 10.5731 126.075 10.5405C126.734 10.4998 127.394 10.4795 128.053 10.4795C129.054 10.4795 129.904 10.5446 130.604 10.6748C131.312 10.7969 131.898 10.9312 132.362 11.0776C132.899 11.2567 133.342 11.4561 133.692 11.6758V9.69824C133.692 9.36458 133.611 9.07975 133.448 8.84375C133.285 8.59961 133.066 8.39616 132.789 8.2334C132.512 8.0625 132.195 7.92822 131.837 7.83057C131.479 7.72477 131.104 7.64339 130.714 7.58643C130.323 7.52946 129.924 7.49284 129.518 7.47656C129.119 7.46029 128.744 7.45215 128.395 7.45215C128.028 7.45215 127.638 7.46436 127.223 7.48877C126.808 7.50505 126.393 7.54167 125.978 7.59863C125.571 7.6556 125.176 7.73698 124.793 7.84277C124.419 7.94043 124.085 8.07471 123.792 8.24561C123.5 8.4165 123.264 8.62402 123.084 8.86816C122.914 9.10417 122.828 9.389 122.828 9.72266L119.801 8.94141C119.801 8.39616 119.935 7.92415 120.204 7.52539C120.472 7.11849 120.826 6.77262 121.266 6.48779C121.713 6.20296 122.226 5.97103 122.804 5.79199C123.382 5.60482 123.98 5.4624 124.598 5.36475C125.225 5.25895 125.847 5.18571 126.466 5.14502C127.084 5.10433 127.662 5.08398 128.199 5.08398ZM151.319 5.08398C151.319 5.93034 151.291 6.81331 151.234 7.73291C151.177 8.64437 151.067 9.58431 150.904 10.5527H147.95C148.023 10.276 148.093 9.97493 148.158 9.64941C148.207 9.37272 148.251 9.05127 148.292 8.68506C148.341 8.31071 148.365 7.91602 148.365 7.50098C147.649 7.51725 147.055 7.58643 146.583 7.7085C146.119 7.82243 145.733 7.96077 145.423 8.12354C145.114 8.27816 144.862 8.43685 144.667 8.59961C144.471 8.76237 144.296 8.89258 144.142 8.99023V19H141.017V8.91699C140.984 8.65658 140.907 8.43685 140.785 8.25781C140.671 8.07878 140.549 7.93229 140.418 7.81836C140.272 7.68001 140.105 7.56608 139.918 7.47656L141.212 5.08398C141.513 5.18978 141.81 5.33219 142.103 5.51123C142.355 5.66585 142.62 5.86523 142.896 6.10938C143.181 6.34538 143.434 6.63835 143.653 6.98828C144.068 6.70345 144.451 6.46338 144.801 6.26807C145.151 6.06462 145.488 5.89372 145.814 5.75537C146.148 5.61702 146.489 5.51123 146.839 5.43799C147.197 5.35661 147.588 5.2915 148.011 5.24268C148.443 5.19385 148.923 5.1613 149.452 5.14502C149.989 5.12061 150.611 5.10026 151.319 5.08398Z" fill="black"/>
</svg>
