<svg width="70" height="15" viewBox="0 0 70 15" fill="none" xmlns="http://www.w3.org/2000/svg">
<path d="M6.38672 0.852539C6.875 0.852539 7.34863 0.881836 7.80762 0.94043C8.2666 0.999023 8.69629 1.08447 9.09668 1.19678C9.50195 1.3042 9.87061 1.43604 10.2026 1.59229C10.5347 1.74365 10.8179 1.91699 11.0522 2.1123C11.2915 2.30762 11.4771 2.52246 11.6089 2.75684C11.7407 2.98633 11.8066 3.23047 11.8066 3.48926V9.36328C11.8066 9.61719 11.7432 9.85645 11.6162 10.0811C11.4941 10.3057 11.3208 10.5132 11.0962 10.7036C10.8716 10.894 10.603 11.0674 10.2905 11.2236C9.97803 11.3799 9.63379 11.5117 9.25781 11.6191C9.37012 11.9854 9.47021 12.3491 9.55811 12.7104C9.65088 13.0718 9.74121 13.4404 9.8291 13.8164L8.18848 14.4756C8.16895 14.2705 8.13477 14.0361 8.08594 13.7725C8.04688 13.5479 7.99316 13.2793 7.9248 12.9668C7.85645 12.6543 7.76855 12.3076 7.66113 11.9268C7.45605 11.9561 7.24609 11.9756 7.03125 11.9854C6.81641 11.9951 6.60156 12 6.38672 12C5.89355 12 5.41748 11.9707 4.9585 11.9121C4.50439 11.8535 4.07715 11.7705 3.67676 11.6631C3.27637 11.5508 2.91016 11.4189 2.57812 11.2676C2.25098 11.1113 1.96777 10.9355 1.72852 10.7402C1.49414 10.5449 1.31104 10.3325 1.1792 10.103C1.04736 9.86865 0.981445 9.62207 0.981445 9.36328V3.48926C0.981445 3.23047 1.04736 2.98633 1.1792 2.75684C1.31104 2.52246 1.49414 2.30762 1.72852 2.1123C1.96289 1.91699 2.24609 1.74365 2.57812 1.59229C2.91016 1.43604 3.27637 1.3042 3.67676 1.19678C4.07715 1.08447 4.50439 0.999023 4.9585 0.94043C5.41748 0.881836 5.89355 0.852539 6.38672 0.852539ZM9.87305 4.06055C9.87305 3.85059 9.79248 3.65039 9.63135 3.45996C9.4751 3.26953 9.24561 3.10107 8.94287 2.95459C8.64502 2.80811 8.28125 2.69336 7.85156 2.61035C7.42188 2.52246 6.93359 2.47852 6.38672 2.47852C5.86426 2.47852 5.38818 2.52002 4.9585 2.60303C4.53369 2.68604 4.16748 2.79834 3.85986 2.93994C3.55713 3.08154 3.32031 3.25 3.14941 3.44531C2.9834 3.63574 2.90039 3.84082 2.90039 4.06055V8.80664C2.90039 9.02148 2.9834 9.22412 3.14941 9.41455C3.32031 9.60498 3.55713 9.771 3.85986 9.9126C4.16748 10.0542 4.53369 10.1665 4.9585 10.2495C5.38818 10.3325 5.86426 10.374 6.38672 10.374C6.93359 10.374 7.42188 10.3325 7.85156 10.2495C8.28125 10.1616 8.64502 10.0469 8.94287 9.90527C9.24561 9.75879 9.4751 9.59277 9.63135 9.40723C9.79248 9.2168 9.87305 9.0166 9.87305 8.80664V4.06055ZM16.084 12H14.2236V3.65039H16.084V12ZM15.1611 0.75C15.5225 0.75 15.8081 0.811035 16.0181 0.933105C16.228 1.05029 16.333 1.23828 16.333 1.49707V1.86328C16.333 2.09766 16.228 2.26611 16.0181 2.36865C15.8081 2.47119 15.5225 2.52246 15.1611 2.52246C14.8145 2.52246 14.5337 2.47119 14.3188 2.36865C14.1089 2.26611 14.0039 2.09766 14.0039 1.86328V1.49707C14.0039 1.23828 14.1089 1.05029 14.3188 0.933105C14.5337 0.811035 14.8145 0.75 15.1611 0.75ZM23.4521 3.65039C23.8818 3.65039 24.3311 3.69922 24.7998 3.79688C25.2734 3.89453 25.7324 4.02148 26.1768 4.17773V0.852539H28.0957V11.4287C27.8369 11.5068 27.5269 11.5801 27.1655 11.6484C26.8091 11.7168 26.4258 11.7778 26.0156 11.8315C25.6055 11.8804 25.1782 11.9219 24.7339 11.9561C24.2944 11.9854 23.8672 12 23.4521 12C22.7002 12 22.0288 11.9487 21.438 11.8462C20.8472 11.7388 20.3467 11.5752 19.9365 11.3555C19.5264 11.1357 19.2139 10.8574 18.999 10.5205C18.7842 10.1836 18.6768 9.7832 18.6768 9.31934V6.33105C18.6768 5.86719 18.7842 5.4668 18.999 5.12988C19.2139 4.79297 19.5264 4.51465 19.9365 4.29492C20.3467 4.0752 20.8472 3.91406 21.438 3.81152C22.0288 3.7041 22.7002 3.65039 23.4521 3.65039ZM23.9795 10.6377C24.1748 10.6377 24.3726 10.6279 24.5728 10.6084C24.7778 10.5889 24.9756 10.562 25.166 10.5278C25.3613 10.4937 25.5444 10.4546 25.7153 10.4106C25.8911 10.3667 26.0449 10.3203 26.1768 10.2715V5.67188C25.8398 5.51074 25.4932 5.37891 25.1367 5.27637C24.7852 5.16895 24.3994 5.11523 23.9795 5.11523C23.6768 5.11523 23.3813 5.12256 23.0933 5.13721C22.8101 5.14697 22.5439 5.17383 22.2949 5.21777C22.0459 5.25684 21.8164 5.31543 21.6064 5.39355C21.3965 5.4668 21.2158 5.56689 21.0645 5.69385C20.918 5.8208 20.8032 5.97705 20.7202 6.1626C20.6372 6.34814 20.5957 6.57031 20.5957 6.8291V8.98242C20.5957 9.37793 20.686 9.68799 20.8667 9.9126C21.0522 10.1323 21.2988 10.2959 21.6064 10.4033C21.9141 10.5107 22.2729 10.5767 22.6831 10.6011C23.0933 10.6255 23.5254 10.6377 23.9795 10.6377ZM32.5928 12H30.7324V3.65039H32.5928V12ZM31.6699 0.75C32.0312 0.75 32.3169 0.811035 32.5269 0.933105C32.7368 1.05029 32.8418 1.23828 32.8418 1.49707V1.86328C32.8418 2.09766 32.7368 2.26611 32.5269 2.36865C32.3169 2.47119 32.0312 2.52246 31.6699 2.52246C31.3232 2.52246 31.0425 2.47119 30.8276 2.36865C30.6177 2.26611 30.5127 2.09766 30.5127 1.86328V1.49707C30.5127 1.23828 30.6177 1.05029 30.8276 0.933105C31.0425 0.811035 31.3232 0.75 31.6699 0.75ZM41.8945 3.65039C41.8945 4.1582 41.8774 4.68799 41.8433 5.23975C41.8091 5.78662 41.7432 6.35059 41.6455 6.93164H39.873C39.917 6.76562 39.9585 6.58496 39.9976 6.38965C40.0269 6.22363 40.0537 6.03076 40.0781 5.81104C40.1074 5.58643 40.1221 5.34961 40.1221 5.10059C39.6924 5.11035 39.3359 5.15186 39.0527 5.2251C38.7744 5.29346 38.5425 5.37646 38.3569 5.47412C38.1714 5.56689 38.02 5.66211 37.9028 5.75977C37.7856 5.85742 37.6807 5.93555 37.5879 5.99414V12H35.7129V5.9502C35.6934 5.79395 35.647 5.66211 35.5737 5.55469C35.5054 5.44727 35.4321 5.35938 35.354 5.29102C35.2661 5.20801 35.166 5.13965 35.0537 5.08594L35.8301 3.65039C36.0107 3.71387 36.189 3.79932 36.3647 3.90674C36.5161 3.99951 36.6748 4.11914 36.8408 4.26562C37.0117 4.40723 37.1631 4.58301 37.2949 4.79297C37.5439 4.62207 37.7734 4.47803 37.9834 4.36084C38.1934 4.23877 38.396 4.13623 38.5913 4.05322C38.7915 3.97021 38.9966 3.90674 39.2065 3.86279C39.4214 3.81396 39.6558 3.7749 39.9097 3.74561C40.1685 3.71631 40.4565 3.69678 40.7739 3.68701C41.0962 3.67236 41.4697 3.66016 41.8945 3.65039ZM45.9082 12H44.0479V3.65039H45.9082V12ZM44.9854 0.75C45.3467 0.75 45.6323 0.811035 45.8423 0.933105C46.0522 1.05029 46.1572 1.23828 46.1572 1.49707V1.86328C46.1572 2.09766 46.0522 2.26611 45.8423 2.36865C45.6323 2.47119 45.3467 2.52246 44.9854 2.52246C44.6387 2.52246 44.3579 2.47119 44.1431 2.36865C43.9331 2.26611 43.8281 2.09766 43.8281 1.86328V1.49707C43.8281 1.23828 43.9331 1.05029 44.1431 0.933105C44.3579 0.811035 44.6387 0.75 44.9854 0.75ZM53.3496 3.65039C53.9307 3.65039 54.4971 3.68701 55.0488 3.76025C55.6006 3.82861 56.0962 3.94824 56.5356 4.11914C56.9751 4.28516 57.3364 4.51221 57.6196 4.80029C57.9028 5.08838 58.0713 5.44727 58.125 5.87695L56.4258 6.3457C56.4258 6.0918 56.3379 5.88184 56.1621 5.71582C55.9912 5.54492 55.7617 5.41309 55.4736 5.32031C55.1904 5.22266 54.8633 5.1543 54.4922 5.11523C54.1211 5.07617 53.7402 5.05664 53.3496 5.05664C52.9736 5.05664 52.6001 5.07617 52.229 5.11523C51.8628 5.14941 51.5332 5.21533 51.2402 5.31299C50.9521 5.40576 50.7178 5.53516 50.5371 5.70117C50.3613 5.86719 50.2734 6.08203 50.2734 6.3457V7.23926H58.125V9.77344C58.125 10.0615 58.0615 10.3179 57.9346 10.5425C57.8076 10.7622 57.6318 10.9551 57.4072 11.1211C57.1826 11.2822 56.9165 11.4214 56.6089 11.5386C56.3062 11.6509 55.9766 11.7412 55.6201 11.8096C55.2686 11.8779 54.8975 11.9268 54.5068 11.9561C54.1211 11.9854 53.7354 12 53.3496 12C52.7588 12 52.1875 11.9658 51.6357 11.8975C51.084 11.8242 50.5884 11.7046 50.1489 11.5386C49.7095 11.3677 49.3481 11.1406 49.0649 10.8574C48.7866 10.5693 48.623 10.208 48.5742 9.77344L50.2734 9.30469C50.2734 9.57324 50.3613 9.79053 50.5371 9.95654C50.7178 10.1226 50.9521 10.252 51.2402 10.3447C51.5332 10.4375 51.8628 10.501 52.229 10.5352C52.6001 10.5645 52.9736 10.5791 53.3496 10.5791C53.7402 10.5791 54.1211 10.562 54.4922 10.5278C54.8633 10.4888 55.1904 10.4229 55.4736 10.3301C55.7617 10.2324 55.9912 10.103 56.1621 9.94189C56.3379 9.77588 56.4258 9.56348 56.4258 9.30469V8.41113H48.5742V5.87695C48.5742 5.58887 48.6377 5.33496 48.7646 5.11523C48.8916 4.89062 49.0649 4.69775 49.2847 4.53662C49.5093 4.37061 49.7729 4.23145 50.0757 4.11914C50.3784 4.00195 50.7056 3.90918 51.0571 3.84082C51.4136 3.77246 51.7847 3.72363 52.1704 3.69434C52.561 3.66504 52.9541 3.65039 53.3496 3.65039ZM65.4199 3.65039C66.1719 3.65039 66.8164 3.71387 67.3535 3.84082C67.8906 3.96289 68.3301 4.14844 68.6719 4.39746C69.0186 4.6416 69.27 4.94678 69.4263 5.31299C69.5874 5.6792 69.668 6.10645 69.668 6.59473V12H67.749V7.04883C67.749 6.77539 67.7124 6.54102 67.6392 6.3457C67.5659 6.14551 67.4658 5.97705 67.3389 5.84033C67.2168 5.69873 67.0728 5.58398 66.9067 5.49609C66.7407 5.4082 66.5674 5.34229 66.3867 5.29834C66.2109 5.24951 66.0303 5.21777 65.8447 5.20312C65.6592 5.18359 65.4834 5.17383 65.3174 5.17383C65.0049 5.17383 64.707 5.1958 64.4238 5.23975C64.1406 5.28369 63.8721 5.34473 63.6182 5.42285C63.3643 5.49609 63.125 5.58398 62.9004 5.68652C62.6758 5.78906 62.4658 5.89648 62.2705 6.00879V12H60.3516V0.852539H62.2705V4.61719C62.4951 4.48047 62.7246 4.35352 62.959 4.23633C63.1934 4.11914 63.4375 4.0166 63.6914 3.92871C63.9502 3.84082 64.2212 3.77246 64.5044 3.72363C64.7925 3.6748 65.0977 3.65039 65.4199 3.65039Z" fill="black"/>
</svg>
